<?xml version="1.0" encoding="utf-8"?>
<!-- Svg Vector Icons : http://www.onlinewebfonts.com/icon -->
<!DOCTYPE svg PUBLIC "-//W3C//DTD SVG 1.1//EN" "http://www.w3.org/Graphics/SVG/1.1/DTD/svg11.dtd">
<svg version="1.1" xmlns="http://www.w3.org/2000/svg" xmlns:xlink="http://www.w3.org/1999/xlink" x="0px" y="0px" viewBox="0 0 1000 1000" enable-background="new 0 0 1000 1000" xml:space="preserve">
<metadata> Svg Vector Icons : http://www.onlinewebfonts.com/icon </metadata>
<g><path d="M500,990C229.9,990,10,770.1,10,500S229.9,10,500,10c270.2,0,490,219.9,490,490S770.1,990,500,990z M500,93.3c-224.2,0-406.6,182.4-406.6,406.6c0,224.2,182.4,406.6,406.6,406.6c224.2,0,406.6-182.5,406.6-406.6C906.6,275.8,724.2,93.3,500,93.3z"/><path d="M232.4,496.5l507.3-236.4L506.9,788.4L500,506.9L232.4,496.5z"/></g>
</svg>