<?xml version="1.0" ?><!DOCTYPE svg  PUBLIC '-//W3C//DTD SVG 1.1//EN'  'http://www.w3.org/Graphics/SVG/1.1/DTD/svg11.dtd'><svg enable-background="new 0 0 128 128" id="Layer_1" version="1.1" viewBox="0 0 128 128" xml:space="preserve" xmlns="http://www.w3.org/2000/svg" xmlns:xlink="http://www.w3.org/1999/xlink"><g><g><g><g><g><path d="M64.007,36.81l1.612-0.549l0.109-2.385l-1.933-1.177l-0.146-3.447l-1.479,0.727       c0.053,0.347,0.096,0.697,0.134,1.049l0.411-0.202l0.104,2.449l1.884,1.147l-0.051,1.111l-1.295,0.44v-0.155l-1.022-0.259       c-0.104,1.105-0.285,2.218-0.548,3.315l2.696,0.83l0.019,0.193l1.573-0.135l0.071-1.98L64.007,36.81z M65.108,38.843       l-0.021,0.002l-2.467-0.76l-0.036-0.271l0.484-0.333l2.054,0.935L65.108,38.843z" fill="#313638"/></g></g><g><g><path d="M60.801,23.696l-0.513,0.065c0.193,0.417,0.373,0.841,0.542,1.271l0.384,0.326l-0.211,0.112       c0.117,0.316,0.224,0.636,0.328,0.958l1.655-0.881L60.801,23.696z" fill="#313638"/></g></g><g><g><path d="M65.637,24.826v-1.721l-5.118-2.267l-1.72,0.198c0.197,0.309,0.386,0.623,0.568,0.942l0.995-0.114       l4.274,1.892v1.852l1.259,0.313l-0.31,0.582h-2.162l-0.594,1.533l-1.11-0.261c0.092,0.359,0.176,0.721,0.25,1.086l1.479,0.349       l0.66-1.707h2.078l1.19-2.244L65.637,24.826z" fill="#313638"/></g></g><g><g><path d="M71.456,74.818l-1.34-2.192l-4.594-0.044l-3.112-1.185l-0.152-2.286l-1.366-2.385l-3.173-0.044       l-1.763-2.757l-2.397-1.166l-0.11,1.163l-2.249,0.133l-1.035-1.438l-0.532-0.108l-0.51,0.917l0.46,0.093l1.127,1.567       l3.653-0.217l0.056-0.581l0.847,0.412l1.901,2.974l3.142,0.044l0.968,1.689l0.18,2.696l3.795,1.444l4.302,0.071l1.244,2.038       l1.698,0.543l-0.257,1.19l-2.159,2.743l-0.617,5.949l-1.623,1.284l-2.988-0.089l-1.104,1.914l-0.066,0.131l0.668,3.122       l-3.021,3.87l-0.919,1.688l-2.763,1.325l-2.268,0.343l-0.159,1.632l1.337,0.383l-0.054,0.289l-1.443,1.387l1.178,1.477       l1.188,0.034l-0.041,0.557l-0.394,1.152l-0.165,1.188l2.147,1.807l-0.085,0.28l-2.417-0.046l-2.764-2.41l-2.191-3.845       l0.326-3.949l-1.73-2.306l0.75-4.178l-1.111-0.312v-8.427l-0.198-0.15c-3.046-2.307-3.177-2.298-3.349-2.305       c-0.111-0.013-0.625-0.141-1.133-0.274l-0.259-1.433l-3.549-4.447c-0.304,0.156-0.639,0.271-0.992,0.361l3.602,4.511       l0.327,1.807l0.305,0.083c0.969,0.264,1.361,0.35,1.534,0.377c0.306,0.18,1.553,1.092,2.712,1.967v8.688l0.967,0.271       l-0.666,3.713l1.764,2.351l-0.32,3.879l2.386,4.188l3.208,2.833l3.536,0.067l0.497-1.634l-2.232-1.879l0.068-0.541l0.393-1.121       l0.147-1.793l-1.769-0.05l-0.32-0.4l1.018-0.979l0.278-1.498l-1.409-0.404l1.574-0.265l3.262-1.541l1.029-1.902l3.268-4.175       l-0.726-3.149l0.716-1.242l2.754,0.081l2.24-1.771l0.631-6.082l2.124-2.696l0.495-2.304L71.456,74.818z" fill="#313638"/></g></g><g><g><polygon fill="#313638" points="24.702,57.204 26.731,60.307 27.363,60.463 25.123,56.438      "/></g></g><g><g><path d="M112.559,49.769c-0.396-1.342-0.856-2.688-1.368-4.004l-0.126-0.324l-2.731,0.046l-1.046-1.146       l-0.314-2.886l-2.186,1.192l-0.549,2.148l-1.182-1.258l-0.08-1.974l-2.007-1.725l-0.836-0.829h-3.083l0.987,2.772l2.613,1.457       l-0.213,0.106l0.002,0.197l-3.74-2.521l-0.461-1.731l-2.007,1.812l-1.668-0.343l-2.642,3.43l-0.438,1.081l-1.215,0.112       l-2.205,0.014l-1.04-0.485l-0.35-2.354l0.355-0.937l1.991-0.436l2.951,0.592l0.523-2.384l-1.115-0.263l0.235-1.396l2.441-0.382       l1.812-2.557l1.588-0.267l1.682,0.243h1.196l-0.511-3.601l-2.181,0.879l-0.643-1.598l-1.117-0.156l-0.114-0.628l0.727-0.788       l2.366-0.928l0.88-1.569l-0.304-0.267c-9.211-8.108-21.021-12.588-33.256-12.614L64.068,13.5c-3.787,0-7.514,0.424-11.136,1.24       c0.352,0.261,0.698,0.529,1.035,0.809c3.295-0.685,6.671-1.049,10.101-1.049V14l0.112,0.502       c11.856,0.025,23.309,4.319,32.293,12.099l-0.309,0.551l-2.249,0.881l-1.219,1.323l0.331,1.831l1.262,0.176l0.799,1.988       l1.925-0.775l0.17,1.197l-1.737-0.256l-2.153,0.36l-1.808,2.553l-2.734,0.427l-0.513,3.031l1.07,0.253l-0.102,0.462       l-2.195-0.439l-2.724,0.596l-0.641,1.687l0.467,3.144l1.674,0.782l-2.976,1.652v2.863l-5.604,4.04l0.647,2.406h0.906       l-0.136,0.751l-0.847,0.311l-0.043,4.776l5.057,5.755h2.652l0.122-0.324l3.596-0.008l1.079-0.997h1.72l1.142,1.143l2.844,0.297       l-0.384,3.861l3.457,6.092l-1.791,3.417l0.15,1.993l1.444,1.436v3.953l1.908,2.57v3.659h1.084       c-9.433,11.092-23.09,17.448-37.703,17.481L64.069,114v-0.5c-27.319,0-49.546-22.206-49.546-49.5       c0-5.841,1.007-11.531,2.996-16.953v0.545l2.078,0.999v3.776l2.185,3.721l2.338,0.36l0.245-1.371l-3.17-5.696l0.318,2.448       l1.881,2.992l-0.087,0.49l-0.904-0.14l-1.806-3.076v-3.788l-0.263-0.472l-1.815-0.873v-2.389l-0.255-0.458       c-0.121-0.232-0.232-0.479-0.346-0.72l-0.359,0.84C14.882,50.499,13.523,57.148,13.523,64c0,27.846,22.675,50.5,50.546,50.5       l0.114-0.002c15.201-0.033,29.447-6.836,39.087-18.665l0.665-0.815h-2.203v-2.989l-1.908-2.57v-4.039l-1.476-1.467l-0.1-1.335       l1.91-3.647l-3.568-6.289l0.45-4.537l-3.48-0.361l-1.185-1.186h-2.524l-1.079,0.997h-3.894l-0.122,0.324l-1.511,0.008       l-4.506-5.128l0.033-3.702l0.735-0.27l0.45-2.493h-1.338l-0.269-0.999l5.46-3.936v-2.787l2.313-1.284l0.987,0.097h2.355       l1.761-0.944l4.972-0.387v2.716l4.717,1.195l0.928,0.661h1.472v-1.606l1.912-0.186l2.414,1.792h4.349l0.655-0.596       L112.559,49.769z M89.217,46.424l-2.054,0.003l-0.35-0.035l1.504-0.011l1.181-0.107L89.217,46.424z M98.854,41.093       l-0.386-1.083h1.254l0.569,0.563l1.702,1.465l0.048,1.172l-0.626-0.663L98.854,41.093z M100.453,44.425l0.006,0.424       l-0.464,0.194L100.453,44.425z M107.974,49.665l-2.457-1.825l-3.199,0.311v1.515h-0.151l-0.744-0.53l-4.221-1.104v-3.019       l-6.154,0.479l-0.703,0.328l0.416-1.077l2.215-2.877l1.553,0.319l1.167-1.055l0.136,0.511l3.629,2.446l-0.004,0.006       l-2.523-0.136l1.381,1.961l1.431,0.314l1.726-0.722l-0.022-1.552l0.614-0.308l0.012,0.3l2.686,2.855l0.891-3.49l0.492-0.269       l0.188,1.726l1.571,1.721l2.484-0.042c0.403,1.059,0.772,2.137,1.1,3.213H107.974z" fill="#313638"/></g></g><g><g><polygon fill="#313638" points="20.335,47.836 20.598,48.308 20.598,47.962      "/></g></g></g></g><g><g><g><path d="M64.115,13.14L64,13.138c-3.906,0-7.749,0.45-11.482,1.308c0.686,0.484,1.344,1.004,1.973,1.557      C57.612,15.371,60.81,15,64.061,15c0.002,0,0.004,0,0.006,0l0.111,0.071C91.099,15.167,113,37.141,113,64.013      s-21.901,48.828-48.818,48.923l-0.103,0.011L64,113.956v-1c-27.019,0-49-21.94-49-48.909c0-6.578,1.352-12.984,3.841-18.894      l-0.577-1.036c-0.214-0.409-0.414-0.836-0.605-1.273C14.64,49.413,13,56.628,13,64.047c0,28.071,22.879,50.909,51,50.909      l0.186-0.003C92.204,114.854,115,92.019,115,64.048S92.204,13.24,64.115,13.14z" fill="#313638"/></g></g></g><g><g><g><path d="M39.067,73.3c-1.003,0-1.595-0.742-1.814-1.235L20.937,42.751c-1.41-2.697-2.244-6.13-2.244-9.206      c0-11.234,9.141-20.375,20.375-20.375s20.375,9.141,20.375,20.375c0,3.149-0.845,6.551-2.316,9.333L40.855,72.111      C40.694,72.497,40.077,73.3,39.067,73.3z M39.067,15.17c-10.132,0-18.375,8.243-18.375,18.375c0,2.728,0.768,5.891,2.004,8.256      l16.372,29.418l16.3-29.295c1.295-2.447,2.074-5.587,2.074-8.379C57.442,23.413,49.199,15.17,39.067,15.17z" fill="#313638"/></g></g><g><g><path d="M39.067,48.88c-8.547,0-15.5-6.871-15.5-15.317s6.953-15.317,15.5-15.317s15.5,6.871,15.5,15.317      S47.614,48.88,39.067,48.88z M39.067,19.245c-7.995,0-14.5,6.423-14.5,14.317s6.505,14.317,14.5,14.317s14.5-6.423,14.5-14.317      S47.062,19.245,39.067,19.245z" fill="#313638"/></g></g></g></g></svg>